PathFileType	4	(X/Y/Z)	17_2_79_p1_0-328_filt_butterworth.trc
DataRate	CameraRate	NumFrames	NumMarkers	Units	OrigDataRate	OrigDataStartFrame	OrigNumFrames
59.0	59.0	7	27	m	59.0	41	328
Frame#	Time	RHip			RKnee			RAnkle			RBigToe			RSmallToe			RHeel			LHip			LKnee			LAnkle			LBigToe			LSmallToe			LHeel			Neck			Head			Nose			RShoulder			RElbow			RWrist			RThumb			RIndex			RPinky			LShoulder			LElbow			LWrist			LThumb			LIndex			LPinky			
		X1	Y1	Z1	X2	Y2	Z2	X3	Y3	Z3	X4	Y4	Z4	X5	Y5	Z5	X6	Y6	Z6	X7	Y7	Z7	X8	Y8	Z8	X9	Y9	Z9	X10	Y10	Z10	X11	Y11	Z11	X12	Y12	Z12	X13	Y13	Z13	X14	Y14	Z14	X15	Y15	Z15	X16	Y16	Z16	X17	Y17	Z17	X18	Y18	Z18	X19	Y19	Z19	X20	Y20	Z20	X21	Y21	Z21	X22	Y22	Z22	X23	Y23	Z23	X24	Y24	Z24	X25	Y25	Z25	X26	Y26	Z26	X27	Y27	Z27	
41	0.6949152542372882	0.283599672769908	0.5270431317549426	0.8479256882848254	0.2546703569380786	0.6053706250152497	1.263702720308406	0.24384565578718778	0.7075306198235898	1.6870986986575462	0.23390555459121454	0.5213173504729866	1.7278852011835908	0.285775402343042	0.5605356659158433	1.7321674059861145	0.20687265588207926	0.8134558748791451	1.7596000116650605	0.06728212121059673	0.519639222684842	0.854044252999661	0.046890957541863516	0.5978283247840803	1.271401533953735	0.047065151883748	0.6727813146166884	1.6834522663772464	0.08209124774391424	0.49583290407153313	1.7218563546673527	0.02703555017014128	0.5338086729220171	1.7284996033965077	0.06646842242906517	0.7943844108759761	1.7735390247299527	0.155227111607161	0.45768227780112075	0.1964238396568639	0.1684701372334974	0.3975476958516042	-0.05030452266967622	0.1577206460308492	0.33433588755157545	0.08808202972328401	0.3248504039968714	0.5056495614002854	0.3192053665903345	0.37568323891212857	0.5090650244197913	0.5798879298441694	0.36332099826225334	0.41204413728885925	0.8329430347961787	0.2699319774355553	0.3923002815405626	0.9384762674163123	0.2768787879971281	0.38627656007874045	0.9623435585199064	0.313070749120594	0.4586778283318237	0.9782926692582353	0.006836249722541106	0.48551929879306494	0.31277250414710345	-0.003936602660251414	0.44559290330866275	0.5917470427374202	0.007356559645283985	0.40802268216425264	0.8584581838069256	0.06583801800401437	0.3536225922811619	0.9369701526056979	0.06111399920989065	0.3394647199387468	0.9689330689223706	0.02915037195687364	0.3778985391705264	0.9811852253765364
42	0.711864406779661	0.28355922511837844	0.5269202163155815	0.8482802345270223	0.2545586554665326	0.605262756856116	1.2639293577230517	0.24368880294584525	0.7079257345738542	1.6872862854042845	0.2338761551188156	0.5209708233868241	1.727837390269428	0.2857386828653567	0.5603628301923156	1.7321267461666887	0.2068890063376905	0.8134501167080687	1.7595096505148615	0.06745996233319387	0.519739506960517	0.8559165955858048	0.046966075489531925	0.5982969150769984	1.2713707102392666	0.047373368047832015	0.6730129064623479	1.6834389083571821	0.08195241761060562	0.49572054599037896	1.7218133877347874	0.026968597150452467	0.5339616745861551	1.7284354410633136	0.06642592514393081	0.7941450338647211	1.773496789895682	0.15618814251917473	0.4565919633425788	0.19643456635488374	0.16848269303756627	0.3975630308882242	-0.050143087574713516	0.1577867159280263	0.3345601864258049	0.08807153681807366	0.3256856214775302	0.5096582997430625	0.3189234850331773	0.37417934149432636	0.5167810724253804	0.5786138020045853	0.3696140367201043	0.41598221439351346	0.8336437922528901	0.2783139027761282	0.39260443281860113	0.9396944533457371	0.28629383024808497	0.38866800831457743	0.9641862756759247	0.3171646753546913	0.4803947858604626	0.9838653939604431	0.006918875210084855	0.48542687799330153	0.3136597693531107	-0.0044840435486501245	0.4446347699210413	0.591896558467058	-0.006032303420762849	0.420238428518584	0.86332851535427	0.061568628574971355	0.3568117997162439	0.9444941302741358	0.053163276788897595	0.339192935533046	0.9705190375316188	0.011769000633543459	0.39450044826166647	0.9840377776647121
43	0.7288135593220338	0.28349675923445744	0.5267934500352314	0.8471499993827999	0.25469846102779686	0.6047982724547671	1.2640726121547916	0.2436202045202891	0.7080999705742616	1.687357524565195	0.233840065836236	0.5208167888835333	1.7278604964751814	0.2857124303252417	0.560142746318933	1.732066271106159	0.2069722053986715	0.8134410291082972	1.7593619551512136	0.06815373778699528	0.5190031976130174	0.8579015673024117	0.04695387805110041	0.598546819421336	1.2713884746251116	0.04816915898610315	0.6749867246001097	1.6842052218481764	0.0822540706438182	0.49531420020880357	1.721959591451857	0.026995780874554134	0.5341099550259883	1.7284344224773305	0.06638713785865205	0.7939081621993408	1.7734200149857795	0.15863592618657799	0.4538007608519252	0.19640747771073697	0.16849948979241494	0.39757446306213395	-0.04999128106936175	0.15784210192603693	0.334707404149316	0.08806208896990515	0.3259543203354309	0.5117067009077391	0.31814921724255446	0.3728952370676475	0.5212733297934293	0.5770936933586792	0.37552998450693703	0.416550408722518	0.833513410708576	0.28829429613404634	0.3946745355032906	0.9396343272518944	0.29689259597436624	0.397031274187	0.9683768687464032	0.3213771705479489	0.4935925557702576	0.9871197972759145	0.006969530821145915	0.4855834730008559	0.3140111473343847	-0.005471826622486604	0.4439374787597661	0.5923591206652975	-0.014661923141902688	0.42403570239855326	0.8648427199358895	0.05880128984367232	0.3567242570534347	0.9492564162300022	0.044536062468934885	0.3409099994671304	0.9726210073573957	-0.0029145661537501462	0.40735104112537146	0.9858440337155748
44	0.7457627118644068	0.28351386155826824	0.5267585313767782	0.8461982381021108	0.254854723844543	0.6045761444741976	1.2642977784665956	0.24364116876181233	0.7080770543178703	1.6873299437675378	0.23381860514027014	0.5208528870876824	1.7279583423048144	0.2857076282674769	0.5599992077315662	1.732018614925912	0.2070577292394364	0.8134444376295977	1.7593334672750083	0.06962786851856749	0.5175878080258639	0.8592627463249424	0.04685316699255946	0.5987441884854471	1.27137535440834	0.049345253645115335	0.679531759379377	1.6862458533428786	0.08275595523492209	0.4949282365956976	1.7225738088823555	0.02711125891143406	0.5343303906115502	1.728557584076937	0.06637893252570722	0.7938061399175157	1.773510585788009	0.1618860999630018	0.4500927296346289	0.19634354553844297	0.16852211889927238	0.39756281129141813	-0.049890934499236254	0.1578744736021282	0.3347317661342338	0.08805161261769957	0.3259244969628053	0.5117108605073377	0.3170898427373473	0.3727623337297673	0.5226350919544838	0.5754467006266021	0.38030124751552347	0.41440827292161075	0.8332344932043375	0.29881981771772903	0.40042713008078834	0.9410406713385022	0.3078171136474321	0.41334908377391844	0.9758355657758859	0.3282065266438012	0.4983468735839717	0.9885303221372299	0.007008435250261225	0.4860242390134725	0.3143574685813169	-0.00738681148695366	0.44443520770522965	0.5928247813647394	-0.0197001503451222	0.4229296674361737	0.8651397424414315	0.05612456101011156	0.3561428445601064	0.9524167896673812	0.03430876897245303	0.34849459246709613	0.9760098497814916	-0.012542476686692419	0.41581823550193464	0.9878056048429357
45	0.7627118644067796	0.28373950646128115	0.5267483431922414	0.8458309052917784	0.2548817666028489	0.6046585821685384	1.2643177710840765	0.2436909084575321	0.7080103188698483	1.6872878463879968	0.23383225689834475	0.5209787966971057	1.7280984032945197	0.28572596467932626	0.5599367229445765	1.731985300234639	0.20701025350188904	0.8135027519508441	1.7598269478508781	0.07135787100678231	0.5167704419235684	0.8586229491340799	0.04670057834464006	0.5989781611788313	1.2713122609483127	0.05064988713612527	0.6855007061647459	1.6889323733056727	0.08302799611917339	0.4948183546856869	1.7238258720887771	0.027263245897538542	0.5345422885628421	1.7287259522018794	0.06637777869707641	0.7938208103338068	1.7735826460496595	0.1643592304410834	0.44726933996978613	0.19626350284869326	0.16854622262690958	0.3975252607811493	-0.04985245639706379	0.1578971408669838	0.3346854305875514	0.08802561098605441	0.3258284953340556	0.5114042146969914	0.31627376040734334	0.37388717898344903	0.5228606800646435	0.5745345581419781	0.38376970276519995	0.4136466207969358	0.8339599184581882	0.308317787591997	0.4098730691827497	0.9450978009138958	0.31815300399504903	0.43253227045713216	0.9848138425610404	0.3386269003975559	0.49856037253227725	0.9900712101887801	0.007027979908607277	0.486353451060513	0.31523838119778474	-0.010058659431239583	0.4471065142455498	0.5929394531325309	-0.02278991062039522	0.4210323408423745	0.8654012876270093	0.05139432718664612	0.35828339525612146	0.9559902930472571	0.022517373446050502	0.36179922269405496	0.9808436898592339	-0.017813799453585098	0.4214292129429652	0.9901828311146575
46	0.7796610169491526	0.2840573370902896	0.5266504671010946	0.8457423622077755	0.25454420933304583	0.6047622419483114	1.2633933707468636	0.24371694761197582	0.7079519888486718	1.6872494229471826	0.23382844673735376	0.5208200840110064	1.728073478799244	0.28576377589047014	0.5599202046921984	1.7319568832457686	0.20673714600503734	0.8136530431709827	1.7611341917883914	0.07201962735919634	0.5174835862547298	0.8566075698165994	0.04649630664864318	0.59918278260032	1.2712494552760958	0.05185872538002012	0.6903820310537226	1.690697470893273	0.08294065541765393	0.4949244808708249	1.7253533700164532	0.027210682229506594	0.5345883880020632	1.7288141960249883	0.06630765668613578	0.7939078628443972	1.7730561379820715	0.1653375983044598	0.4461588772372684	0.19619607833577152	0.16855526482235433	0.39748571941920624	-0.04986844962117599	0.15792589610596014	0.33461482503935336	0.08798087794763794	0.32580945124349747	0.5119037266235491	0.315953585728362	0.37554022809987325	0.5231205785162428	0.5747251609981084	0.3865155647744128	0.4184082196940475	0.836145558115249	0.31561229004570845	0.42205915527128224	0.9508931646330885	0.32684129261397327	0.44710880767923067	0.9921831121953222	0.34988352655067406	0.4974832689205774	0.9927956187764504	0.006959210259322189	0.48548108668326917	0.3165025718092483	-0.012608972869629148	0.45099661683301123	0.5925680328006083	-0.024357550410201087	0.41987733372100344	0.8651797364617336	0.04290629150272779	0.36581513269630433	0.9606800256422123	0.010252708470250014	0.37688258905176386	0.9862636389460528	-0.020479527103025252	0.4252159500255964	0.9921238833359648
47	0.7966101694915254	0.2842690795934882	0.5264337542449548	0.845786189246504	0.2536589646677562	0.6042410893750663	1.2609961991254177	0.24370198134287682	0.7078935066886852	1.687197655600812	0.23363282999585838	0.5194523522562327	1.7274291875149872	0.2858021616836967	0.559916666874508	1.7319270842672294	0.20633832329061896	0.8138721831230342	1.7628691275320318	0.07079470688714659	0.5187484971663545	0.8551939959314379	0.04619016754136498	0.599331649593196	1.2712312570444528	0.0526022021257412	0.6925916796412426	1.6904152890689401	0.08270564814274928	0.49504994416265696	1.726446433993551	0.026503666198350137	0.5342948546921306	1.7287110813974764	0.06608396214378197	0.7939611299624231	1.7713484892584506	0.16536228423565025	0.44614111282699204	0.19623023175791107	0.16854075660440565	0.39746222354469907	-0.04991880731777221	0.15796067747556858	0.3345444036009522	0.08794138605895654	0.325879509643635	0.512829599961049	0.315961314708677	0.3767380274147364	0.52331103802493	0.5753860341334077	0.38952467360268694	0.4299135932260497	0.8391178462057158	0.3205705065394892	0.43679608572602846	0.956827055236607	0.3334746601515146	0.45358706340557703	0.9958163474350251	0.3587049462474736	0.4961257466807387	0.9956557078957369	0.006736891884931219	0.4824915772084181	0.31748493100267616	-0.014011483666158495	0.4537104153965672	0.5916253878126518	-0.02474879364280211	0.41918786372010713	0.8636076057108302	0.03076192330127079	0.3790618709775938	0.9649031765945406	-0.0006984076754248045	0.38902108278574743	0.9903594864575287	-0.02184094297973243	0.4273145452207766	0.9923081950355848
